<svg xmlns="http://www.w3.org/2000/svg" viewBox="0 0 24 24" fill="none">
  <g stroke="#000000" stroke-width="1.3" stroke-linecap="round" stroke-linejoin="round">
    <!-- 八边形链条：相邻边的两条棱线在每条边中点交叉，形成扭在一起的链条感 -->
    <path d="M21.70 16.02 L15.06 19.39 M19.39 15.06 L16.02 21.70"/>
    <path d="M16.02 21.70 L8.94 19.39 M15.06 19.39 L7.98 21.70"/>
    <path d="M7.98 21.70 L4.61 15.06 M8.94 19.39 L2.30 16.02"/>
    <path d="M2.30 16.02 L4.61 8.94 M4.61 15.06 L2.30 7.98"/>
    <path d="M2.30 7.98 L8.94 4.61 M4.61 8.94 L7.98 2.30"/>
    <path d="M7.98 2.30 L15.06 4.61 M8.94 4.61 L16.02 2.30"/>
    <path d="M16.02 2.30 L19.39 8.94 M15.06 4.61 L21.70 7.98"/>
    <path d="M21.70 7.98 L19.39 15.06 M19.39 8.94 L21.70 16.02"/>
    <!-- 内部八边形 -->
    <path d="M15.33 13.38 L13.38 15.33 L10.62 15.33 L8.67 13.38 L8.67 10.62 L10.62 8.67 L13.38 8.67 L15.33 10.62 Z"/>
  </g>
</svg>
